<?xml version="1.0" standalone="no"?>
<!DOCTYPE svg PUBLIC "-//W3C//DTD SVG 20010904//EN"
 "http://www.w3.org/TR/2001/REC-SVG-20010904/DTD/svg10.dtd">
<svg version="1.0" xmlns="http://www.w3.org/2000/svg"
 width="700.000000pt" height="700.000000pt" viewBox="0 0 700.000000 700.000000"
 preserveAspectRatio="xMidYMid meet">
<metadata>
Created by potrace 1.14, written by Peter Selinger 2001-2017
</metadata>
<g transform="translate(0.000000,700.000000) scale(0.100000,-0.100000)"
fill="#000000" stroke="none">
<path d="M4447 6200 c-15 -33 -27 -62 -27 -65 0 -2 -11 -28 -24 -57 -23 -50
-161 -365 -351 -803 -100 -230 -221 -506 -240 -550 -8 -16 -75 -172 -150 -345
-75 -173 -142 -318 -148 -322 -7 -4 -17 -2 -23 5 -6 7 -98 208 -204 447 -169
381 -318 716 -396 888 -13 29 -24 54 -24 57 0 2 -16 39 -36 82 -20 43 -70 155
-111 248 -42 94 -88 197 -103 230 -15 33 -42 94 -60 135 -18 41 -35 78 -39 82
-3 4 -69 -29 -146 -74 -77 -44 -156 -89 -175 -100 -19 -11 -143 -82 -275 -158
-132 -76 -257 -147 -278 -159 -21 -12 -49 -29 -63 -37 l-24 -17 33 -41 c19
-22 94 -120 168 -216 74 -96 139 -182 146 -190 17 -21 209 -270 398 -516 88
-115 190 -247 226 -294 36 -47 119 -155 184 -240 65 -85 137 -178 159 -207 23
-28 51 -64 63 -80 37 -48 82 -108 91 -118 17 -21 10 -45 -12 -40 -12 2 -77 11
-146 20 -69 8 -144 18 -165 21 -22 2 -56 7 -75 9 -19 2 -51 7 -70 10 -19 2
-55 7 -80 9 -25 3 -76 10 -115 15 -38 5 -95 12 -125 16 -30 3 -66 8 -80 10
-27 5 -80 12 -145 20 -22 2 -56 7 -75 10 -19 3 -55 7 -80 9 -25 3 -76 9 -115
15 -38 5 -95 12 -125 16 -30 3 -66 8 -80 10 -14 2 -44 7 -67 10 -24 3 -61 7
-83 10 -64 8 -122 15 -160 20 -128 17 -272 35 -310 40 -25 3 -56 8 -70 10 -14
2 -48 7 -75 10 l-50 5 0 -533 c0 -525 1 -532 20 -531 26 1 169 19 310 39 17 2
71 9 120 15 127 15 168 20 185 25 8 2 42 6 75 10 33 3 74 8 90 11 17 2 48 6
70 9 149 18 445 56 470 60 41 5 270 35 325 41 25 3 56 7 70 9 24 4 56 9 145
20 46 5 104 13 155 20 19 2 58 7 85 11 28 3 57 7 65 9 65 12 139 15 144 7 6
-10 -6 -28 -145 -207 -43 -55 -146 -188 -229 -295 -84 -107 -164 -211 -180
-230 -15 -19 -96 -123 -179 -230 -83 -107 -157 -202 -164 -210 -7 -8 -26 -33
-42 -55 -16 -22 -32 -42 -35 -45 -8 -7 -122 -153 -145 -186 -11 -15 -31 -41
-45 -58 -43 -53 -94 -117 -248 -317 l-82 -107 220 -138 c121 -77 231 -146 245
-154 13 -8 98 -62 189 -120 91 -58 183 -115 204 -127 l39 -23 38 83 c79 169
113 244 138 297 13 30 44 96 67 145 23 50 49 106 58 125 8 19 37 81 64 138 26
57 48 105 48 107 0 2 25 56 55 120 30 65 55 118 55 120 0 1 24 54 54 116 29
63 101 218 159 344 58 127 127 277 154 335 27 58 67 144 88 192 22 48 47 89
56 91 13 3 59 -97 224 -482 197 -460 223 -520 265 -616 16 -35 56 -131 81
-190 4 -11 93 -218 197 -460 140 -325 194 -440 205 -439 14 1 844 470 940 531
l37 23 -105 133 c-59 72 -112 139 -119 148 -7 9 -79 99 -160 200 -81 101 -160
200 -175 219 -16 19 -187 233 -380 475 -193 242 -362 454 -375 470 -196 241
-201 248 -191 265 4 6 9 9 13 6 4 -2 36 -7 72 -11 36 -3 76 -8 90 -10 14 -1
46 -5 70 -8 25 -3 72 -9 105 -12 33 -4 71 -8 85 -10 14 -2 50 -7 80 -10 30 -3
89 -10 130 -15 41 -5 98 -12 125 -15 28 -3 64 -8 80 -10 17 -2 50 -6 75 -9
107 -12 228 -27 260 -31 19 -3 55 -7 80 -10 85 -8 171 -19 250 -30 14 -2 52
-6 85 -10 70 -8 114 -13 170 -19 79 -10 121 -15 175 -21 30 -3 66 -7 80 -10
14 -2 54 -7 90 -11 36 -4 72 -8 80 -9 62 -8 157 -19 165 -20 11 0 15 1054 4
1061 -4 2 -58 -3 -120 -11 -63 -9 -130 -17 -149 -20 -37 -5 -93 -12 -150 -21
-37 -5 -75 -10 -155 -19 -27 -4 -95 -13 -150 -20 -55 -8 -122 -17 -150 -20
-27 -4 -61 -8 -75 -10 -23 -4 -155 -21 -217 -30 -16 -1 -47 -6 -70 -9 -24 -3
-62 -8 -85 -11 -24 -3 -54 -8 -68 -10 -14 -2 -52 -7 -85 -10 -33 -3 -67 -8
-75 -10 -8 -2 -37 -6 -65 -10 -44 -5 -145 -18 -232 -30 -62 -8 -360 -47 -383
-50 -14 -2 -51 -6 -82 -10 -46 -6 -58 -5 -58 6 0 10 324 448 375 506 5 7 38
49 72 95 35 46 118 155 185 244 68 89 133 174 145 190 47 62 318 419 511 672
111 146 202 269 202 273 0 6 -95 61 -455 264 -60 34 -127 72 -147 84 -65 36
-110 62 -193 108 -44 25 -94 54 -111 64 l-31 19 -26 -60z"/>
</g>
</svg>
