<svg version="1.1" id="Layer_1" xmlns="http://www.w3.org/2000/svg" x="0" y="0" viewBox="0 0 610 87" xml:space="preserve"><path d="M68.1 29.2h-3.9c.1-4-.5-10.1-2.6-11.9-2.4-2-6.3-2.4-10.3-2.5-5 0-5.9.7-6.6 2.2-.9 1.8-.9 15.3-.9 23.2v6c0 7.6.4 23.9 1 25.7.8 3 5.9 4.2 9.8 4.8l-.4 2.6s-10.9-.4-16-.4-15.7.4-15.7.4l-.5-2.5c3.4-.7 8.4-1.8 9-3.7 1.5-3.1 1.5-22.6 1.5-28.5 0-5.8-.1-24-.8-26.2-.3-1.4-.9-3.6-4.8-3.6-5.3 0-9.1.9-11.3 3-3 3.6-4.4 7-5.5 11.4H6.2c0-5.2 1-14.9 3.3-19h61.2c0 5.1-1.3 13.7-2.6 19zM80.3 80.5c-6.4 0-11.2-5.6-11.2-13.3 0-4.6 4.8-7.4 23.5-11.8.1-2.3.3-5.6.3-7.2 0-5.3-4.1-9.7-8.6-9.7-1.5 0-2.2.1-3.1.3-2.1.7-2 9.1-6.5 9.1-3 0-5.2-2.3-5.2-3.6 0-3.3 13.1-12.4 17.7-12.4 8 0 13.9 5.9 13.9 11.4 0 7.5-.9 16.2-.9 23 0 4.2 1.8 6.3 4 6.3 2.4 0 5.6-2 5.6-2l1 1.5s-7.5 8.2-11.8 8.2c-3.7 0-5.9-3.2-7.3-5.6-1.2 1.8-7.3 5.8-11.4 5.8zm-1.9-14.3c0 3.9 2.6 7.7 7.4 7.7 2.3 0 5.9-1.6 6-4.5l.3-10c-11.4 2.5-13.7 3.4-13.7 6.8zM113.8 10.5V8.4c4-1.3 8-3.1 11.8-5.1l1.8 1.8v10.5c0 6.6-.3 30.7-.3 31.4v4.4c0 .7.4 1.6 1.5 1.6 1.6 0 15.2-11.8 15.2-13.5 0-2.6-2.9-3.9-5.6-4.3l.2-1.9s9.7.3 12.2.3c2.9 0 10.8-.3 10.8-.3l.3 1.9c-3.3.9-6.3 2.4-9.8 4.7-2.6 1.8-9 6.9-14.3 11.8 2.9 3.5 14.3 18 16.9 20.1 3.7 3 6.9 5 9.5 6.1l-.4 1.6s-9.2-.3-12.4-.3c-3.3 0-10.5.3-10.5.3l-.2-1.9c1.5-.4 4.3-1.3 4.3-3.1 0-2.1-13.6-18.3-15-18.3-1.1 0-2.5 1.4-2.8 2.5.1 6.7.3 13.5.8 14.4 1.2 2.5 3.5 3.4 6.9 4.3l-.3 2s-8.3-.2-11.6-.2c-3.4 0-8.7.2-8.7.2l-.3-1.9c2-1 3.3-2 4.3-4.2 1-2 .9-21.6.9-27.4 0-6.5-.2-25.9-.5-28.6-.3-3-.7-4.6-4.7-6.8zM166.9 56.9c0-14.6 13.1-24.8 23.3-24.8 10.3 0 15.2 6.6 15.2 14.6 0 1.7-.1 3.6-.5 5.3h-29c-.1 1.1-.1 1.8-.1 2.9 0 10.9 8.1 17.7 16.4 17.7 7.4 0 13.1-6.7 13.1-6.7l1.4 1.4c-2 5-9.5 13.2-18.2 13.2-12.6 0-21.6-9.9-21.6-23.6zm9.5-8.8h18.4c.1-.8.2-1.5.2-2.3 0-4.1-1.9-8.6-7.1-8.6-6 0-10.4 5.9-11.5 10.9zM278.8 80.5c-6.4 0-11.2-5.6-11.2-13.3 0-4.6 4.8-7.4 23.5-11.8.1-2.3.3-5.6.3-7.2 0-5.3-4.1-9.7-8.6-9.7-1.5 0-2.2.1-3.1.3-2.1.7-2 9.1-6.5 9.1-3 0-5.2-2.3-5.2-3.6 0-3.3 13.1-12.4 17.7-12.4 8 0 13.9 5.9 13.9 11.4 0 7.5-.9 16.2-.9 23 0 4.2 1.8 6.3 4 6.3 2.4 0 5.6-2 5.6-2l1 1.5s-7.5 8.2-11.8 8.2c-3.7 0-5.9-3.2-7.3-5.6-1.2 1.8-7.2 5.8-11.4 5.8zm-1.9-14.3c0 3.9 2.6 7.7 7.4 7.7 2.3 0 5.9-1.6 6-4.5l.3-10c-11.3 2.5-13.7 3.4-13.7 6.8zM405.1 38.9c0 1.9-4.1 5.9-5.8 5.9-4.6 0-6.5-7.8-12.3-7.8-6.7 0-12.4 7.3-12.4 16.4 0 12.8 8.4 19.1 16.4 19.1 7.4 0 13.1-6.7 13.1-6.7l1.4 1.4c-2 5-9.2 13.2-17.9 13.2-12.7 0-21.8-9.6-21.8-23.7 0-14.4 14.5-24.8 25.8-24.8 5.7.2 13.5 4.8 13.5 7zM461.8 77.4l-.3 2s-8.2-.2-11.5-.2c-3.4 0-8.7.2-8.7.2l-.3-1.9c2-1 3.4-2 4.3-4.2.8-2 .9-16.8.9-19.3 0-1.3-.2-3.7-.7-6.5-.7-3.7-5-8.1-9-8.1-5.7 0-10.7 1.5-10.7 5.7 0 9.2-.3 25.4.7 27.9 1 2.6 3.5 3.4 6.9 4.3l-.3 2s-8.2-.2-11.5-.2c-3.4 0-8.7.2-8.7.2l-.3-1.9c2-1 3.3-2 4.3-4.2.9-2 .9-28.7.9-33.4 0-5.4-.3-19.8-.5-22.6-.3-3.1-.7-4.7-4.6-6.9V8.4c4-1.3 8-3.1 11.8-5.1l1.8 1.8c0 7-.1 31.6-.1 33 0 0 8.5-5.9 15-5.9 6.7 0 13.5 5.3 13.5 10.8 0 6.5-.2 10.2-.2 13.4 0 4.6-.3 14 .8 16.8.6 2.6 3.1 3.4 6.5 4.2zM468.8 38v-2.1c4-1.3 8-2.9 11.8-4.8l1.8 1.8s-.3 12.8-.3 22.1c0 5.7-.2 16.3.8 18.3 1.2 2.5 3.5 3.4 6.9 4.3l-.3 2s-8.2-.2-11.5-.2c-3.4 0-8.7.2-8.7.2l-.3-1.9c2-1 3.3-2 4.3-4.2 1-2 .9-12.8.9-18.6 0-3-.1-7.1-.3-9.9-.5-3-1.2-4.8-5.1-7zm9.1-28.8c4.1 0 5.7 2.4 5.7 5.3 0 2.3-1.9 5.2-5.7 5.2-4 0-6.1-1.4-6.1-5.2.1-2.8 2.4-5.3 6.1-5.3zM526.5 34.3c0 3.7-.4 8.9-1 11h-2c-1.8-6.3-4.2-8.8-10.5-8.8-4.6.4-6.9 2.6-6.9 6.4 0 4.2 2.5 5.9 10.3 10.2 5.7 3.2 10.9 7 10.9 13.3 0 8.1-7.5 14.1-16.9 14.1-5.9 0-11.8-1.6-14.7-2.6 0-3.5 0-8.4 1-12.9h1.9c.9 6.2 3.4 11.1 10.9 11.2 4.2 0 8.2-2.3 8.2-7.1 0-4.3-3.1-6.6-8.1-9.7-5.3-3.2-12.4-6.4-12.4-14.7 0-6.7 7.4-12.5 17.3-12.5 5-.1 9.7 1 12 2.1zM536.4 56.9c0-14.6 13.1-24.8 23.3-24.8 10.3 0 15.2 6.6 15.2 14.6 0 1.7-.1 3.6-.5 5.3h-29c-.1 1.1-.1 1.8-.1 2.9 0 10.9 8.1 17.7 16.4 17.7 7.4 0 13.1-6.7 13.1-6.7l1.4 1.4c-2 5-9.5 13.2-18.2 13.2-12.7 0-21.6-9.9-21.6-23.6zm9.5-8.8h18.4c.1-.8.2-1.5.2-2.3 0-4.1-1.9-8.6-7.1-8.6-6 0-10.4 5.9-11.5 10.9zM584.6 10.5V8.4c4-1.3 8-3.1 11.8-5.1l1.8 1.8c-.4 15-.3 33.6-.3 39.9 0 6.6-.2 26.2.8 28.2 1.2 2.5 3.5 3.4 6.9 4.3l-.3 2s-8.2-.2-11.5-.2c-3.4 0-8.7.2-8.7.2l-.3-1.9c2-1 3.3-2 4.3-4.2 1-2 .9-21.6.9-27.4 0-6.5-.2-25.9-.6-28.6-.4-3.1-.8-4.7-4.8-6.9z" class="logo_text color_body" /><path class="color_primary" d="m245.9 45-7.5 9.9v.1l11.9-1.6v5.4l-11.9-1.4v.2L246 67l-5 2.8-4.7-11h-.2L231 69.9l-4.5-2.8 7.5-9.6v-.2l-11.7 1.5v-5.4l11.6 1.5v-.2l-7.4-9.6 4.8-2.8 4.9 11h.2l4.8-11 4.7 2.7zM350.9 45l-7.5 9.9v.1l11.9-1.6v5.4l-11.9-1.4v.2L351 67l-5 2.8-4.7-11h-.2L336 69.9l-4.5-2.8 7.5-9.6v-.2l-11.7 1.5v-5.4l11.6 1.5v-.2l-7.4-9.6 4.8-2.8 4.9 11h.2l4.8-11 4.7 2.7z"/></svg>